<?xml version="1.0" encoding="utf-8"?>
<!-- Generator: Adobe Illustrator 21.0.2, SVG Export Plug-In . SVG Version: 6.00 Build 0)  -->
<svg version="1.1" id="Layer_1" xmlns="http://www.w3.org/2000/svg" xmlns:xlink="http://www.w3.org/1999/xlink" x="0px" y="0px"
	 viewBox="0 0 106.4 75" style="enable-background:new 0 0 106.4 75;" xml:space="preserve">
<style type="text/css">
	.st0{enable-background:new    ;}
	.st1{fill:#FFFFFF;}
	.st2{fill:#1C313A;}
	.st3{fill:#FDD835;}
</style>
<title>Asset 1</title>
<g id="Layer_2">
	<g id="HEADER">
		<g class="st0">
			<path class="st1" d="M35.1,57.4c0,0.4-0.1,0.8-0.2,1.2s-0.3,0.6-0.7,0.9s-0.8,0.4-1.3,0.6c-0.6,0.1-1.3,0.2-2.1,0.2
				s-1.6-0.1-2.1-0.2s-1-0.3-1.3-0.6s-0.5-0.5-0.7-0.9c-0.1-0.3-0.2-0.7-0.2-1.2v-6.8c0-0.2,0-0.3,0.1-0.4c0.1-0.1,0.2-0.1,0.4-0.1
				h2.2c0.2,0,0.3,0,0.4,0.1s0.1,0.2,0.1,0.4v6.3c0,0.2,0.1,0.3,0.2,0.5c0.1,0.1,0.4,0.2,0.9,0.2c0.5,0,0.8-0.1,0.9-0.2
				c0.1-0.1,0.2-0.3,0.2-0.5v-6.3c0-0.2,0-0.3,0.1-0.4c0.1-0.1,0.2-0.1,0.4-0.1h2.1c0.2,0,0.3,0,0.4,0.1s0.1,0.2,0.1,0.4V57.4z"/>
			<path class="st1" d="M39.5,60h-2.1c-0.2,0-0.3,0-0.4-0.1c-0.1-0.1-0.1-0.2-0.1-0.4v-9c0-0.2,0-0.3,0.1-0.4
				c0.1-0.1,0.2-0.1,0.4-0.1h1.4c0.2,0,0.3,0,0.4,0.1c0.1,0.1,0.2,0.2,0.4,0.3l2.7,3.1v-2.9c0-0.2,0-0.3,0.1-0.4
				c0.1-0.1,0.2-0.1,0.4-0.1h2.1c0.2,0,0.3,0,0.4,0.1c0.1,0.1,0.1,0.2,0.1,0.4v9c0,0.2,0,0.3-0.1,0.4c-0.1,0.1-0.2,0.1-0.4,0.1h-2.1
				c-0.2,0-0.3,0-0.4-0.1c-0.1-0.1-0.1-0.2-0.1-0.4v-1.7L40,54.9v4.6c0,0.2,0,0.3-0.1,0.4C39.8,59.9,39.7,60,39.5,60z"/>
			<path class="st1" d="M47.6,60c-0.2,0-0.3,0-0.4-0.1c-0.1-0.1-0.1-0.2-0.1-0.4v-1.6c0-0.2,0-0.3,0.1-0.4c0.1-0.1,0.2-0.1,0.4-0.1
				H49v-4.6h-1.4c-0.2,0-0.3,0-0.4-0.1c-0.1-0.1-0.1-0.2-0.1-0.4v-1.7c0-0.2,0-0.3,0.1-0.4c0.1-0.1,0.2-0.1,0.4-0.1h5.9
				c0.2,0,0.3,0,0.4,0.1c0.1,0.1,0.1,0.2,0.1,0.4v1.7c0,0.2,0,0.3-0.1,0.4c-0.1,0.1-0.2,0.1-0.4,0.1h-1.3v4.6h1.3
				c0.2,0,0.3,0,0.4,0.1c0.1,0.1,0.1,0.2,0.1,0.4v1.6c0,0.2,0,0.3-0.1,0.4c-0.1,0.1-0.2,0.1-0.4,0.1H47.6z"/>
			<path class="st1" d="M58.3,60h-2.1c-0.2,0-0.3,0-0.4-0.1c-0.1-0.1-0.1-0.2-0.1-0.4v-9c0-0.2,0-0.3,0.1-0.4
				c0.1-0.1,0.2-0.1,0.4-0.1h4.2c1.3,0,2.1,0.2,2.6,0.7s0.7,1.1,0.7,1.9v1.8c0,0.8-0.2,1.5-0.7,1.9c-0.5,0.5-1.3,0.7-2.6,0.7h-1.6
				v2.3c0,0.2,0,0.3-0.1,0.4S58.5,60,58.3,60z M58.8,52.6v2.1H60c0.3,0,0.4-0.1,0.5-0.2c0.1-0.1,0.1-0.3,0.1-0.5v-0.7
				c0-0.2,0-0.3-0.1-0.5c-0.1-0.1-0.3-0.2-0.5-0.2H58.8z"/>
			<path class="st1" d="M73.5,57.4c0,0.4-0.1,0.8-0.2,1.2c-0.1,0.3-0.3,0.6-0.7,0.9c-0.3,0.2-0.8,0.4-1.3,0.6s-1.3,0.2-2.1,0.2
				c-0.9,0-1.6-0.1-2.1-0.2c-0.6-0.1-1-0.3-1.3-0.6c-0.3-0.2-0.5-0.5-0.7-0.9C65,58.2,65,57.8,65,57.4v-4.7c0-0.4,0.1-0.8,0.2-1.2
				c0.1-0.3,0.3-0.6,0.7-0.9c0.3-0.2,0.8-0.4,1.3-0.6c0.6-0.1,1.3-0.2,2.1-0.2c0.9,0,1.6,0.1,2.1,0.2c0.6,0.1,1,0.3,1.3,0.6
				c0.3,0.2,0.5,0.5,0.7,0.9c0.1,0.3,0.2,0.7,0.2,1.2V57.4z M68.1,56.9c0,0.2,0.1,0.3,0.2,0.5c0.1,0.1,0.5,0.2,1,0.2
				c0.5,0,0.8-0.1,1-0.2c0.1-0.1,0.2-0.3,0.2-0.5v-3.7c0-0.2-0.1-0.3-0.2-0.4c-0.1-0.1-0.5-0.2-1-0.2c-0.5,0-0.8,0.1-1,0.2
				c-0.1,0.1-0.2,0.3-0.2,0.4V56.9z"/>
		</g>
		<g class="st0">
			<path class="st1" d="M79.9,60h-4.4c-0.2,0-0.3,0-0.4-0.1S75,59.7,75,59.5v-1.6c0-0.2,0-0.3,0.1-0.4s0.2-0.1,0.4-0.1h3.7
				c0.1,0,0.2,0,0.3-0.1c0.1-0.1,0.1-0.2,0.1-0.3c0-0.2,0-0.3-0.1-0.3c-0.1-0.1-0.2-0.1-0.3-0.1l-2.1-0.3c-0.6-0.1-1.2-0.3-1.6-0.6
				c-0.4-0.3-0.6-0.9-0.6-1.7v-1.5c0-0.8,0.3-1.4,0.8-1.8c0.5-0.4,1.2-0.6,2.1-0.6h3.9c0.2,0,0.3,0,0.4,0.1c0.1,0.1,0.1,0.2,0.1,0.4
				v1.6c0,0.2,0,0.3-0.1,0.4c-0.1,0.1-0.2,0.1-0.4,0.1h-3.2c-0.1,0-0.2,0-0.3,0.1s-0.1,0.2-0.1,0.3c0,0.1,0,0.2,0.1,0.3
				s0.2,0.1,0.3,0.1l2.1,0.3c0.6,0.1,1.2,0.3,1.6,0.6c0.4,0.3,0.6,0.9,0.6,1.7v1.5c0,0.8-0.3,1.4-0.8,1.8C81.5,59.8,80.8,60,79.9,60
				z"/>
			<path class="st1" d="M88.7,60h-2.2c-0.2,0-0.3,0-0.4-0.1C86,59.8,86,59.7,86,59.5v-6.8h-2c-0.2,0-0.3,0-0.4-0.1s-0.1-0.2-0.1-0.4
				v-1.7c0-0.2,0-0.3,0.1-0.4s0.2-0.1,0.4-0.1h7.3c0.2,0,0.3,0,0.4,0.1s0.1,0.2,0.1,0.4v1.7c0,0.2,0,0.3-0.1,0.4s-0.2,0.1-0.4,0.1
				h-2v6.8c0,0.2,0,0.3-0.1,0.4C89,59.9,88.9,60,88.7,60z"/>
		</g>
		<g>
			<path class="st2" d="M70.8,45c-1.2,0-2.1-0.9-2.2-2.1l-0.3-11.7h-8.7c-0.3,0-0.5-0.2-0.5-0.5v-3.4c0-0.3,0.2-0.5,0.5-0.5h10.8
				c1.2,0,2.2,1,2.2,2.2l0.2,7.5l6.6-8.8c0.4-0.5,1.1-0.9,1.7-0.9h1.9c2.8,0,5-2.2,5-5V9.7c0-3-2.4-5.3-5.3-5.3H46c-2.8,0-5,2.2-5,5
				l0,0v12.6c0,2.7,2.2,4.9,4.9,4.9c0,0,0,0,0.1,0h1.7c0.3,0,0.5,0.2,0.5,0.5v3.4c0,0.3-0.2,0.5-0.5,0.5H46c-5.1,0-9.3-4.1-9.3-9.3
				V9.3C36.7,4.2,40.9,0,46,0h36.7c5.4,0,9.7,4.3,9.7,9.7c0,0,0,0,0,0v12.2c0,5.1-4.2,9.3-9.3,9.3l0,0h-0.8l-9.7,12.9
				C72.2,44.7,71.5,45,70.8,45z"/>
		</g>
		<g>
			<path class="st3" d="M20,58.5c-0.7,0-1.3-0.3-1.7-0.8L8.2,44.5C3.5,44,0,40,0,35.3V22.7c0-5.1,4.2-9.3,9.3-9.3h23
				c0.3,0,0.5,0.2,0.5,0.5v3.4c0,0.3-0.2,0.5-0.5,0.5h-23c-2.8,0-5,2.2-5,5v12.6c0,2.7,2.2,4.9,4.9,4.9c0.7,0,1.3,0.3,1.7,0.8
				l6.8,8.9v-6.8c0-0.7,0.2-1.4,0.7-2c0.5-0.6,1.3-1,2.1-1h25.8c2.8,0,5-2.2,5-5V22.7c0-2.9-1.9-5-4.6-5h-1.7
				c-0.3,0-0.5-0.2-0.5-0.5v-3.3c0-0.3,0.2-0.5,0.5-0.5h1.7c5,0.1,9,4.1,8.9,9.1c0,0.1,0,0.1,0,0.2v12.6c0,5.1-4.2,9.3-9.3,9.3H22.1
				v11.7c0,0.7-0.3,1.4-0.9,1.9C20.8,58.4,20.4,58.5,20,58.5z"/>
		</g>
	</g>
</g>
</svg>
