<svg xmlns="http://www.w3.org/2000/svg" viewBox="0 0 106.38 75"><defs><style>.cls-1{font-size:13.82px;fill:#fff;font-family:Bungee-Regular, Bungee;}.cls-2{letter-spacing:-0.01em;}.cls-3{fill:#1c313a;}.cls-4{fill:#fdd835;}</style></defs><title>Asset 1</title><g id="Layer_2" data-name="Layer 2"><g id="HEADER"><text class="cls-1" transform="translate(25.66 59.98)">UNIPO<tspan class="cls-2" x="48.67" y="0">ST</tspan></text><path class="cls-3" d="M70.83,45a2.17,2.17,0,0,1-2.17-2.12L68.4,31.18H59.69a.48.48,0,0,1-.48-.48V27.32a.48.48,0,0,1,.48-.48H70.53A2.17,2.17,0,0,1,72.7,29l.16,7.51,6.55-8.76a2.17,2.17,0,0,1,1.74-.87h1.93a5,5,0,0,0,5-5V9.69a5.35,5.35,0,0,0-5.35-5.35H46a5,5,0,0,0-5,5V21.92A4.93,4.93,0,0,0,46,26.84h1.69a.48.48,0,0,1,.48.48v3.38a.48.48,0,0,1-.48.48H46a9.28,9.28,0,0,1-9.27-9.26V9.3A9.3,9.3,0,0,1,46,0H82.68a9.69,9.69,0,0,1,9.69,9.69v12.2a9.3,9.3,0,0,1-9.3,9.3h-.84L72.57,44.12A2.17,2.17,0,0,1,70.83,45Z"/><path class="cls-4" d="M20,58.55a2.17,2.17,0,0,1-1.72-.85L8.16,44.54A9.29,9.29,0,0,1,0,35.34V22.72a9.3,9.3,0,0,1,9.3-9.3h23a.48.48,0,0,1,.48.48v3.38a.48.48,0,0,1-.48.48H9.3a5,5,0,0,0-5,5V35.34a4.94,4.94,0,0,0,4.94,4.92,2.11,2.11,0,0,1,1.69.8l6.81,8.89,0-6.75a3,3,0,0,1,.7-2,2.81,2.81,0,0,1,2.13-1H46.36a5,5,0,0,0,5-5V22.72c0-2.87-1.92-5-4.56-5H45.06a.48.48,0,0,1-.48-.48V13.9a.48.48,0,0,1,.48-.48h1.69a9,9,0,0,1,8.9,9.3V35.31a9.3,9.3,0,0,1-9.3,9.3H22.11l0,11.7a2.23,2.23,0,0,1-.93,1.86A2.2,2.2,0,0,1,20,58.55Z"/></g></g></svg>