<svg xmlns="http://www.w3.org/2000/svg" viewBox="0 0 94.54 15"><defs><style>.cls-1{fill:#fff;}</style></defs><title>Asset 14</title><g id="Layer_2" data-name="Layer 2"><g id="HEADER"><path class="cls-1" d="M12.36,10.92a4.91,4.91,0,0,1-.27,1.67,2.79,2.79,0,0,1-1,1.28,5.14,5.14,0,0,1-1.89.83,12.92,12.92,0,0,1-3.06.3,12.93,12.93,0,0,1-3.06-.3,5.14,5.14,0,0,1-1.89-.83,2.79,2.79,0,0,1-1-1.28A4.91,4.91,0,0,1,0,10.92V1A.75.75,0,0,1,.17.47.75.75,0,0,1,.72.3H3.86a.75.75,0,0,1,.55.17A.75.75,0,0,1,4.58,1v9.12a.86.86,0,0,0,.3.67,2.19,2.19,0,0,0,1.34.27,2.24,2.24,0,0,0,1.36-.27.86.86,0,0,0,.3-.67V1A.75.75,0,0,1,8.05.47.75.75,0,0,1,8.6.3h3a.76.76,0,0,1,.55.17.76.76,0,0,1,.17.55Z"/><path class="cls-1" d="M18.74,14.7h-3A.62.62,0,0,1,15,14V1a.75.75,0,0,1,.17-.55A.76.76,0,0,1,15.74.3h2.08a1.59,1.59,0,0,1,.65.12A1.56,1.56,0,0,1,19,.84l3.88,4.44V1a.75.75,0,0,1,.17-.55A.75.75,0,0,1,23.6.3h3a.75.75,0,0,1,.55.17.75.75,0,0,1,.17.55V14a.62.62,0,0,1-.72.72h-3a.62.62,0,0,1-.72-.72V11.52L19.46,7.38V14a.62.62,0,0,1-.72.72Z"/><path class="cls-1" d="M30.48,14.7a.62.62,0,0,1-.72-.72V11.6a.62.62,0,0,1,.72-.72h2V4.16h-2A.75.75,0,0,1,29.93,4a.75.75,0,0,1-.17-.55V1a.75.75,0,0,1,.17-.55A.75.75,0,0,1,30.48.3H39a.76.76,0,0,1,.55.17.76.76,0,0,1,.17.55V3.44a.76.76,0,0,1-.17.55.76.76,0,0,1-.55.17H37.06v6.72H39a.62.62,0,0,1,.72.72V14a.62.62,0,0,1-.72.72Z"/><path class="cls-1" d="M46,14.7H42.9a.62.62,0,0,1-.72-.72V1a.75.75,0,0,1,.17-.55A.76.76,0,0,1,42.9.3H49q2.72,0,3.72,1.08a4,4,0,0,1,1,2.82V6.76a4,4,0,0,1-1,2.82q-1,1.08-3.72,1.08h-2.3V14a.62.62,0,0,1-.72.72ZM46.68,4v3h1.8a.82.82,0,0,0,.76-.3,1.3,1.3,0,0,0,.18-.68V5a1.3,1.3,0,0,0-.18-.68.82.82,0,0,0-.76-.3Z"/><path class="cls-1" d="M68,10.92a4.89,4.89,0,0,1-.27,1.67,2.79,2.79,0,0,1-1,1.28,5.14,5.14,0,0,1-1.9.83,13.06,13.06,0,0,1-3.07.3,13.19,13.19,0,0,1-3.08-.3,5.14,5.14,0,0,1-1.91-.83,2.79,2.79,0,0,1-1-1.28,4.91,4.91,0,0,1-.27-1.67V4.1a4.91,4.91,0,0,1,.27-1.67,2.86,2.86,0,0,1,1-1.29A5,5,0,0,1,58.74.3a15.9,15.9,0,0,1,6.15,0,5,5,0,0,1,1.9.84,2.85,2.85,0,0,1,1,1.29A4.89,4.89,0,0,1,68,4.1Zm-7.88-.72a.86.86,0,0,0,.3.67,3.66,3.66,0,0,0,2.76,0,.86.86,0,0,0,.3-.67V4.82a.84.84,0,0,0-.3-.65,3.66,3.66,0,0,0-2.76,0,.84.84,0,0,0-.3.65Z"/><path class="cls-1" d="M77.24,14.7H70.92A.62.62,0,0,1,70.2,14V11.64a.62.62,0,0,1,.72-.72H76.3a.46.46,0,0,0,.39-.17.65.65,0,0,0,.13-.41.79.79,0,0,0-.13-.5.53.53,0,0,0-.39-.18l-3-.42a4.35,4.35,0,0,1-2.25-.92,3,3,0,0,1-.85-2.4V3.82a3.2,3.2,0,0,1,1.1-2.61,4.63,4.63,0,0,1,3-.91h5.6a.75.75,0,0,1,.55.17.76.76,0,0,1,.17.55V3.4a.75.75,0,0,1-.17.55.75.75,0,0,1-.55.17H75.28a.49.49,0,0,0-.4.17.65.65,0,0,0-.14.43.69.69,0,0,0,.14.44.53.53,0,0,0,.4.2l3,.4a4.42,4.42,0,0,1,2.26.92,3,3,0,0,1,.86,2.4v2.1a3.18,3.18,0,0,1-1.11,2.61A4.64,4.64,0,0,1,77.24,14.7Z"/><path class="cls-1" d="M90.16,14.7H86.92A.62.62,0,0,1,86.2,14V4.16H83.26A.75.75,0,0,1,82.71,4a.75.75,0,0,1-.17-.55V1a.75.75,0,0,1,.17-.55A.75.75,0,0,1,83.26.3H93.82a.75.75,0,0,1,.55.17.75.75,0,0,1,.17.55V3.44a.75.75,0,0,1-.17.55.75.75,0,0,1-.55.17H90.88V14a.62.62,0,0,1-.72.72Z"/></g></g></svg>